<?xml version="1.0" encoding="UTF-8"?>
<svg version="1.1" viewBox="0 0 300 300" xml:space="preserve" xmlns="http://www.w3.org/2000/svg" xmlns:cc="http://creativecommons.org/ns#" xmlns:dc="http://purl.org/dc/elements/1.1/" xmlns:rdf="http://www.w3.org/1999/02/22-rdf-syntax-ns#"><metadata><rdf:RDF><cc:Work rdf:about=""><dc:format>image/svg+xml</dc:format><dc:type rdf:resource="http://purl.org/dc/dcmitype/StillImage"/><dc:title/></cc:Work></rdf:RDF></metadata><g transform="matrix(1.25,0,0,-1.25,0,300)"><g transform="matrix(.06 0 0 -.06 0 595)"/><path d="m171.43 85.714h-34.286v-68.571h-34.286v68.571h-34.286c-18.935 0-34.286-15.35-34.286-34.286v-34.286h-34.286v34.286c0 37.871 30.7 68.571 68.571 68.571h34.286v34.286c0 37.871 30.7 68.571 68.571 68.571 37.871 0 68.571-30.7 68.571-68.571 0-9.4677-7.6751-17.143-17.143-17.143-9.4677 0-17.143 7.6751-17.143 17.143 0 18.935-15.35 34.286-34.286 34.286-18.935 0-34.286-15.35-34.286-34.286v-34.286h34.286v-34.286zm34.286 34.286v-102.86h34.286v102.86h-34.286z" fill-rule="evenodd"/></g></svg>
