<?xml version="1.0" encoding="UTF-8" standalone="no"?>
<!-- Created with Inkscape (http://www.inkscape.org/) -->

<svg
   xmlns:dc="http://purl.org/dc/elements/1.1/"
   xmlns:cc="http://creativecommons.org/ns#"
   xmlns:rdf="http://www.w3.org/1999/02/22-rdf-syntax-ns#"
   xmlns:svg="http://www.w3.org/2000/svg"
   xmlns="http://www.w3.org/2000/svg"
   xmlns:sodipodi="http://sodipodi.sourceforge.net/DTD/sodipodi-0.dtd"
   xmlns:inkscape="http://www.inkscape.org/namespaces/inkscape"
   id="svg4473"
   version="1.1"
   inkscape:version="0.91 r13725"
   xml:space="preserve"
   width="300"
   height="300"
   viewBox="0 0 300 300"
   sodipodi:docname="sideways heart.svg"><metadata
     id="metadata4479"><rdf:RDF><cc:Work
         rdf:about=""><dc:format>image/svg+xml</dc:format><dc:type
           rdf:resource="http://purl.org/dc/dcmitype/StillImage" /><dc:title></dc:title></cc:Work></rdf:RDF></metadata><defs
     id="defs4477" /><sodipodi:namedview
     pagecolor="#ffffff"
     bordercolor="#666666"
     borderopacity="1"
     objecttolerance="10"
     gridtolerance="10"
     guidetolerance="10"
     inkscape:pageopacity="0"
     inkscape:pageshadow="2"
     inkscape:window-width="1376"
     inkscape:window-height="849"
     id="namedview4475"
     showgrid="false"
     inkscape:zoom="0.53776722"
     inkscape:cx="784.91921"
     inkscape:cy="234.90098"
     inkscape:window-x="1063"
     inkscape:window-y="969"
     inkscape:window-maximized="0"
     inkscape:current-layer="g4481" /><g
     id="g4481"
     inkscape:groupmode="layer"
     inkscape:label="transfer"
     transform="matrix(1.25,0,0,-1.25,0,300)"><g
       id="g4485"
       transform="matrix(0.06,0,0,-0.06,0,595)"><g
         id="g4487" /></g><g
       id="g4491"
       transform="matrix(0.06,0,0,-0.06,0,595)" /><g
       id="g5058"
       transform="matrix(0.48380955,0,0,0.48380955,-83.657151,-23.866674)"><path
         d="m 385.51181,332.79528 -70.86614,0 c -78.27658,0 -141.73228,-63.45571 -141.73228,-141.73229 0,-78.27658 63.4557,-141.732282 141.73228,-141.732282 l 354.33069,0 0,354.330712 c 0,78.27658 -63.4557,141.73228 -141.73226,141.73228 -78.27659,0 -141.73229,-63.4557 -141.73229,-141.73228 l 0,-70.86614 z"
         style="fill:#ff0000;fill-opacity:1;fill-rule:evenodd;stroke:none"
         id="path4497"
         inkscape:connector-curvature="0" /><path
         d="m 527.2441,261.92913 -70.86615,0 0,-141.73228 -70.86614,0 0,141.73228 -70.86614,0 c -39.13829,0 -70.86614,-31.72785 -70.86614,-70.86614 l 0,-70.86614 -70.86614,0 0,70.86614 c 0,78.27658 63.4557,141.73229 141.73228,141.73229 l 70.86614,0 0,70.86614 c 0,78.27658 63.4557,141.73228 141.73229,141.73228 78.27656,0 141.73226,-63.4557 141.73226,-141.73228 0,-19.56915 -15.86388,-35.43308 -35.43306,-35.43308 -19.56912,0 -35.43307,15.86393 -35.43307,35.43308 0,39.13828 -31.72785,70.86614 -70.86613,70.86614 -39.1383,0 -70.86615,-31.72786 -70.86615,-70.86614 l 0,-70.86614 70.86615,0 0,-70.86615 z m 70.86613,70.86615 0,-212.59843 70.86613,0 0,212.59843 -70.86613,0 z"
         style="fill:#000000;fill-opacity:1;fill-rule:evenodd;stroke:none"
         id="path4495"
         inkscape:connector-curvature="0" /></g></g></svg>