<?xml version="1.0" encoding="UTF-8"?>
  <svg version="1.1" viewBox="0 0 350 350" xml:space="preserve" xmlns="http://www.w3.org/2000/svg" xmlns:cc="http://creativecommons.org/ns#" xmlns:dc="http://purl.org/dc/elements/1.1/" xmlns:rdf="http://www.w3.org/1999/02/22-rdf-syntax-ns#">
  <metadata>
    <rdf:RDF>
      <cc:Work rdf:about="">
        <dc:format>image/svg+xml</dc:format>
        <dc:type rdf:resource="http://purl.org/dc/dcmitype/StillImage"/>
        <dc:title/>
      </cc:Work>
    </rdf:RDF>
  </metadata>
  <path d="m150 150h-50a100 100 0 0 0 0 200h250v-250a100 100 0 0 0-200 0z" fill="#f00" fill-rule="evenodd"/>
  <path d="m250 200h-50v100h-50v-100h-50a 50 50 0 0 0-50 50v50h-50v-50a100 100 0 0 1 100-100h50v-50a 100 100 0 0 1 200 0 a 25 25 0 0 1-50 0a50 50 0 0 0-100 0v50h50v50zm50-50v150h50v-150z" fill-rule="evenodd"/>
</svg>
